<?xml version="1.0" encoding="UTF-8"?>
<svg width="240px" height="87px" viewBox="0 0 240 87" version="1.1" xmlns="http://www.w3.org/2000/svg" xmlns:xlink="http://www.w3.org/1999/xlink">
    <!-- Generator: Sketch 52.6 (67491) - http://www.bohemiancoding.com/sketch -->
    <title>Page 1</title>
    <desc>Created with Sketch.</desc>
    <g id="Design" stroke="none" stroke-width="1" fill="none" fill-rule="evenodd">
        <g id="Homepage-Alma.be-" transform="translate(-56.000000, -32.000000)" fill="#0D3E5D">
            <g id="HEADER" transform="translate(16.000000, 0.000000)">
                <g id="LOGO" transform="translate(40.189999, 32.000000)">
                    <g id="Page-1" transform="translate(0.355469, 0.606070)">
                        <path d="M74.1125588,28.4492128 C79.6762722,22.4510116 85.3246139,16.4835412 90.869416,10.3699808 C91.3592195,9.8083143 91.9043386,9.14027155 92.5028822,8.36632535 C93.0990619,7.5937975 93.7491389,6.83734428 94.4521676,6.10027517 C95.1542507,5.36131493 95.9107039,4.72873092 96.7201089,4.20252315 C97.5266771,3.67584259 98.3540479,3.37657079 99.1974932,3.30612608 C100.67305,3.23662694 101.708445,3.78080048 102.306989,4.93959226 C102.903168,6.10027517 103.062024,7.34889577 102.781663,8.68356292 C102.500357,10.0900931 101.919306,11.4242875 101.041821,12.6894555 C100.161971,13.9532052 99.3714774,15.2552503 98.6693943,16.5899174 C97.8259489,18.207309 97.0354553,19.8407752 96.2983862,21.4907887 C95.5598988,23.1441118 94.8034455,24.8130367 94.0309177,26.4999274 C92.4130534,30.2259323 90.869416,33.9491005 89.3933867,37.6736871 C87.9173573,41.399692 86.6521893,45.2306547 85.5978826,49.1646843 C85.1052425,50.9220197 84.6646085,52.6973208 84.2797629,54.4891694 C83.8920806,56.2805452 83.6296859,58.0913051 83.4892693,59.9181396 C83.3507438,62.3775581 83.6145568,64.2398514 84.2811812,65.5050194 C84.9463873,66.7701874 86.1245632,67.1214654 87.8109811,66.5593261 C88.5839817,66.2780201 89.3565096,65.9962412 90.1304558,65.7158808 C90.9034564,65.4345747 91.6759843,65.2941581 92.4499305,65.2941581 C93.9954589,65.3636572 95.0497656,65.7513395 95.6128505,66.454841 C96.174517,67.1564514 96.3853783,67.946945 96.2454345,68.8272674 C96.1040723,69.7047532 95.6658022,70.5822389 94.9273148,71.4620886 C94.1897729,72.3395743 93.2933758,72.9910696 92.2390691,73.4127923 C90.2708724,74.2562376 88.3196959,74.6250086 86.3883762,74.5186323 C84.4537471,74.4141472 82.7087041,73.9394729 81.1480465,73.0965003 C79.5864434,72.2525822 78.3037824,71.0403659 77.2981724,69.4598514 C76.2916169,67.8774458 75.7204947,65.9962412 75.5829148,63.8181287 C75.4401342,61.2892111 75.5450921,58.7593478 75.8916422,56.2290118 C76.2400835,53.6986758 76.7790564,51.1863055 77.5066699,48.6914282 C78.2342833,46.196551 79.068273,43.7546254 80.0043838,41.3642332 C80.9386036,38.9757322 81.8922074,36.6562575 82.8651954,34.4062819 C83.4211885,33.2120314 83.9979841,31.9998151 84.5951093,30.7686875 C85.1927074,29.5403966 85.808744,28.3281803 86.441328,27.1325114 C83.0160132,30.7875988 79.5604403,34.3533302 76.0712999,37.8315967 C72.5821594,41.3112815 68.9757686,44.7380146 65.2511821,48.1103776 C66.8671553,48.8138791 68.3077259,49.5523666 69.5728939,50.3248944 C70.2054779,50.6775907 70.9780058,51.1863055 71.8923686,51.8538755 C72.8053131,52.5219182 73.2634401,53.3124119 73.2634401,54.2253563 C73.3315209,55.279663 72.9097982,56.0016031 71.998272,56.3869214 C71.084382,56.7741309 70.2054779,56.9320405 69.3620326,56.8615958 C67.6751419,56.7211792 66.02371,56.2465048 64.4077368,55.4370998 C62.7903452,54.6305316 61.1389133,53.8740784 59.4520226,53.1710497 C58.3991343,54.0849397 57.3448276,54.9813368 56.2905209,55.8588225 C55.2362142,56.7391449 54.1819076,57.5986649 53.1276009,58.4421103 C49.1907346,61.6050303 45.202335,64.5731636 41.1619293,67.3512381 C37.1191596,70.1264758 32.9917617,72.8497074 28.774535,75.5214057 C25.2598642,77.6980998 21.5527706,79.8596649 17.6523087,82.0046825 C13.7523196,84.1478091 9.72704286,85.465456 5.58215199,85.958569 C4.17562178,86.0985128 3.03290463,85.834227 2.1554189,85.1676026 C1.27509646,84.4986143 0.661896569,83.6386215 0.310618604,82.5843148 C-0.0416049272,81.5300081 -0.0945566527,80.4392972 0.153181777,79.3169097 C0.397610725,78.1902672 1.01270175,77.2082963 1.99750929,76.3653238 C3.05181597,75.3786251 4.36851735,74.7299665 5.95092294,74.4141472 C7.53143739,74.0973825 8.95593336,73.6931528 10.219683,73.201931 C11.9756001,72.6388461 13.7154425,72.0062621 15.4392102,71.3041789 C17.1601413,70.6011502 18.864525,69.86219 20.5514157,69.0896621 C25.7520316,66.6997427 30.7063274,64.0294629 35.4161943,61.0788225 C40.12417,58.1267638 44.6936202,54.928385 49.1217083,51.484159 C49.1217083,51.484159 63.4957378,39.8952956 74.1125588,28.4492128" id="Fill-1"></path>
                        <path d="M238.512112,40.1510714 C238.405736,39.5553645 238.106937,39.1336418 237.615715,38.8859034 C237.123075,38.6410016 236.543915,38.6069612 235.875872,38.7809455 C235.20783,38.9582392 234.626779,39.4314952 234.137448,40.2040231 C232.661419,42.2436101 230.974528,44.4742015 229.076776,46.8986341 C227.179024,49.3240122 225.210355,51.484159 223.172659,53.381911 C221.133545,55.4210252 219.499606,56.7022679 218.270369,57.2303668 C217.040187,57.7565745 216.250166,57.9159025 215.898888,57.7050412 C215.61711,57.5650973 215.406721,57.0559097 215.266304,56.1760601 C215.124942,55.2985743 215.196332,54.0674467 215.477166,52.4869323 C215.757526,50.9045267 216.337159,48.9372755 217.21559,46.5828149 C218.094494,44.2278814 219.446654,41.4691911 221.274907,38.3062711 C221.415324,37.9554659 221.626185,37.569202 221.907491,37.1474793 C222.46963,36.1640901 222.609574,35.1627352 222.329214,34.1424689 C222.047908,33.1250393 221.415324,32.3345457 220.431462,31.7700425 C219.446654,31.2093215 218.445772,31.0693777 217.426451,31.3483198 C216.407603,31.6310442 215.61711,32.2622098 215.055443,33.2460718 C214.914081,33.4564604 214.79163,33.6512471 214.685727,33.8266497 C214.580769,34.0020522 214.456899,34.2322977 214.316956,34.510767 C212.06698,38.4476333 209.766417,41.9438655 207.411956,45.0008821 C205.057023,48.0588442 202.842506,50.6066732 200.77077,52.6443691 C198.695724,54.6834833 196.833903,56.1595127 195.183417,57.0724571 C193.530567,57.9863472 192.283364,58.1976813 191.440392,57.7050412 C191.15814,57.5650973 190.842794,57.2833185 190.491516,56.8615958 C190.139765,56.4398731 189.999348,55.6318865 190.069793,54.4362177 C190.139765,52.6093831 190.824828,50.3783189 192.125455,47.7416067 C193.426082,45.1067855 195.111554,42.4539986 197.186127,39.7823004 C199.257863,37.1120205 201.577338,34.6171433 204.144078,32.2976686 C206.708455,29.9781939 209.291742,28.1868181 211.892523,26.9216501 C216.10975,24.8130367 219.551612,24.777578 222.22331,26.8157466 C223.136255,27.5187754 223.9797,27.7825884 224.753646,27.6057675 C225.526174,27.4317832 226.087841,27.0630123 226.440537,26.4999274 C226.791342,25.9382609 226.897718,25.2347594 226.757302,24.3913141 C226.615939,23.5478687 226.087841,22.7753409 225.175369,22.0718394 C222.714532,20.1740874 219.886342,19.1552394 216.689382,19.0138772 C213.489585,18.8739334 210.135188,19.6464612 206.621462,21.3333519 C203.528042,22.8093813 200.523031,24.8484955 197.60785,27.4478579 C194.690304,30.0491114 192.108435,32.8773009 189.859405,35.935263 C188.87176,37.2765491 187.981037,38.6376921 187.156975,40.0130187 C187.109224,40.0792083 187.060055,40.1340512 187.013249,40.2040231 C185.395858,42.5939425 183.656015,44.8604655 181.795141,47.0045376 C179.932847,49.1486097 178.10554,51.0463617 176.312746,52.6973208 C174.52137,54.3492255 172.850554,55.6848383 171.305971,56.7022679 C169.758551,57.7225341 168.459343,58.268126 167.405509,58.3376252 C166.913342,58.3376252 166.63109,58.2312489 166.561591,58.0208604 C166.209367,57.6695824 166.120957,57.1239905 166.297778,56.3869214 C166.472235,55.6479612 166.666549,54.9993025 166.87741,54.4362177 C167.439077,53.0311058 168.19553,51.484159 169.143933,49.7972683 C170.093282,48.1103776 171.094637,46.4234869 172.148944,44.7380146 C173.272277,42.8402626 174.380481,40.9429833 175.4693,39.0452313 C176.559066,37.1474793 177.3836,35.3206448 177.946685,33.5628366 C178.508351,31.8759459 178.806205,30.3999166 178.843082,29.1347485 C178.878541,27.8695805 178.738124,26.7462475 178.421359,25.76144 C178.10554,24.777578 177.683817,23.9341326 177.156664,23.2311039 C176.629983,22.5290208 176.048933,21.9659359 175.416349,21.5442133 C172.955512,19.7173787 170.214314,19.1906982 167.194175,19.9636988 C165.787645,20.3159223 164.347074,20.964581 162.871045,21.9129842 C161.395015,22.862333 159.954445,24.0405089 158.549333,25.4456207 C157.775387,23.4079249 156.547096,21.9318955 154.860205,21.0175327 C153.873979,20.5267837 152.785632,20.2790452 151.591382,20.2790452 C150.39524,20.2790452 149.20099,20.4899066 148.006739,20.9116292 C146.81107,21.3333519 145.669299,21.9129842 144.581424,22.6514717 C143.490241,23.3890135 142.559803,24.2159115 141.787275,25.128856 C141.927219,23.7941888 141.89176,22.7564295 141.682317,22.0188876 C141.471456,21.2818185 140.906953,20.6667275 139.995427,20.1740874 C139.009201,19.6124208 138.008319,19.5065174 136.990889,19.8573226 C135.97015,20.2095461 135.215115,20.8775889 134.724839,21.860978 L125.172253,40.7548156 C124.794499,41.2866968 124.325025,41.9102979 123.759577,42.6294012 C122.98563,43.6142088 122.108145,44.7205216 121.124755,45.9502309 C120.139948,47.1799401 119.050182,48.4451082 117.855932,49.7457349 C116.660263,51.0463617 115.431499,52.2581052 114.166804,53.381911 C112.901636,54.5066624 111.793905,55.3855665 110.845975,56.0181505 C109.896626,56.6507345 109.088639,57.1079159 108.422015,57.3882764 C107.752554,57.6695824 107.224928,57.8095263 106.839609,57.8095263 C106.453345,57.8095263 106.189532,57.7759586 106.049116,57.7050412 C105.907753,57.635542 105.785302,57.2478597 105.680817,56.544831 C105.574441,55.8427479 105.767809,54.5775799 106.26045,52.749327 C106.892561,50.5726328 107.893916,47.9893451 109.26546,45.0008821 C110.635113,42.014783 112.444455,38.6235086 114.69443,34.8280046 C115.466958,33.5628366 116.274945,32.2622098 117.11839,30.9265971 C117.961835,29.5933483 118.768876,28.291776 119.542823,27.026608 C122.213103,22.8093813 124.619569,18.7864685 126.764587,14.9559785 C128.907241,11.1250157 130.22536,7.62925624 130.718001,4.46633621 C130.857944,3.41202953 130.594131,2.44613333 129.927507,1.56770202 C129.258519,0.688797936 128.398526,0.180083145 127.344219,0.038248166 C126.219468,-0.10169568 125.218113,0.14320605 124.340627,0.775790057 C123.460778,1.40837406 122.95159,2.25181941 122.811646,3.30612608 C122.670284,4.43087747 122.266054,5.7489972 121.59943,7.25906695 C120.930442,8.77197339 120.139948,10.3879466 119.227003,12.1088777 C118.313113,13.8321727 117.292847,15.6060555 116.17046,17.4333628 C115.045235,19.2616157 113.955943,21.0529914 112.901636,22.8093813 C112.058191,24.144994 111.214745,25.4810795 110.3713,26.8157466 C109.527855,28.1513594 108.719868,29.4869721 107.946868,30.8216392 C103.09753,39.115676 100.005527,45.7228221 98.6694416,50.6407136 C98.107775,52.749327 97.843962,54.5600869 97.8789479,56.0701566 C97.9144067,57.5825903 98.107775,58.90071 98.4585802,60.0245158 C98.8108038,61.14974 99.3020256,62.0607934 99.9346096,62.7642949 C100.567194,63.4659052 101.236655,64.0294629 101.937319,64.4511855 C102.712684,64.8724354 103.465828,65.2062204 104.204788,65.4534861 C104.941857,65.6983878 105.732351,65.822257 106.575796,65.822257 C108.051825,65.822257 109.597354,65.2941581 111.214745,64.2403242 C112.509699,63.3954605 113.793305,62.3737759 115.066038,61.1903994 C114.999848,61.7279539 115.066038,62.2702363 115.274063,62.8172466 C115.660326,63.8360945 116.345862,64.6265881 117.329251,65.189673 C117.821892,65.4700335 118.383558,65.6113957 119.016142,65.6113957 C119.790088,65.6113957 120.492171,65.416609 121.124755,65.0317634 C121.757339,64.6440811 122.24998,64.0984892 122.600785,63.3968789 C126.605732,55.0347613 130.172409,48.3212389 133.29987,43.2619852 C136.427331,38.201786 139.168529,34.3902073 141.522989,31.8229942 C143.877923,29.2586178 145.846592,27.676685 147.427107,27.0795597 C149.00904,26.4824344 150.221256,26.4644687 151.064701,27.026608 C152.04809,27.6587192 152.24004,29.0817968 151.644333,31.2963136 C151.04579,33.5098849 150.044435,35.91777 148.639323,38.5171324 C146.319848,42.2436101 144.175776,46.0211484 142.208998,49.85022 C140.240801,53.6826011 138.553438,57.177415 137.148799,60.3398623 C136.656158,61.3246698 136.602734,62.3246064 136.990889,63.3448727 C137.375735,64.3623023 138.06127,65.0832968 139.046078,65.5050194 C140.029467,65.9962412 141.030822,66.049193 142.051088,65.6643474 C143.068518,65.2766651 143.825444,64.5911294 144.317611,63.6072674 C146.916974,57.8464033 149.499316,52.6798278 152.066056,48.1103776 C154.62996,43.5437641 157.055811,39.6778153 159.339827,36.5148953 C161.622424,33.3519753 163.679504,30.8925567 165.507757,29.1347485 C167.334592,27.3788315 168.881066,26.4304283 170.146234,26.2890661 C171.479482,26.1491222 171.690344,27.3949061 170.778818,30.0311456 C169.864928,32.6664395 168.038093,36.1981305 165.296896,40.6257458 C164.171672,42.4539986 163.081906,44.2987989 162.028072,46.1610922 C160.973293,48.0233855 160.13032,49.8681858 159.497736,51.6950203 C157.601403,56.8261371 158.090733,60.8325024 160.973293,63.7136436 C162.660183,65.4005343 164.733338,66.2439797 167.194175,66.2439797 C167.334592,66.2439797 167.492501,66.2260139 167.667904,66.1910279 C167.843306,66.1555692 168.001216,66.1376034 168.142578,66.1376034 C169.898968,65.9962412 171.656303,65.3475826 173.414112,64.188318 C175.170029,63.0281079 176.856919,61.6229961 178.474311,59.9710913 C179.795267,58.6227135 181.029232,57.1736328 182.185659,55.635196 C182.287308,57.4275174 182.714231,59.0501095 183.481086,60.4977719 C184.429962,62.290566 185.818999,63.6772393 187.645833,64.6620469 C188.979082,65.4345747 190.525556,65.822257 192.283364,65.822257 C193.970255,65.822257 195.621687,65.3830414 197.239079,64.5041373 C198.855052,63.6252332 200.402471,62.5179748 201.878028,61.1833076 C203.353585,59.8491133 204.686833,58.3891585 205.882502,56.8086441 C207.077226,55.2262385 208.097492,53.6986758 208.940937,52.2226464 C208.588241,53.8405108 208.46579,55.3326147 208.572166,56.7022679 C208.677597,58.0738121 208.90406,59.2855556 209.256284,60.3398623 C209.607562,61.394169 210.011318,62.290566 210.469918,63.0281079 C210.925681,63.7665954 211.364897,64.2403242 211.78662,64.4511855 C213.403066,65.3636572 214.914081,65.822257 216.320611,65.822257 C218.007502,65.822257 219.641441,65.3475826 221.221955,64.3991794 C222.804361,63.4498306 224.296465,62.2201213 225.702995,60.7086332 C227.108107,59.1985635 228.444192,57.5116728 229.70936,55.6479612 C230.974528,53.7870862 232.13332,51.9767991 233.187627,50.218991 C234.241933,48.4640195 235.154878,46.8641209 235.928824,45.4226048 C236.701352,43.9829797 237.367976,42.9111801 237.93248,42.2076786 C238.422756,41.4351507 238.61707,40.749615 238.512112,40.1510714" id="Fill-4"></path>
                    </g>
                </g>
            </g>
        </g>
    </g>
</svg>